<svg width="277" height="73" viewBox="0 0 277 73" fill="none" xmlns="http://www.w3.org/2000/svg">
<path d="M108.176 57.9067H102.496L89.633 38.4707V57.9067H83.9523V29.5439H89.633L102.496 49.0205V29.5439H108.176V57.9067ZM116.671 32.7495C115.67 32.7495 114.832 32.4384 114.155 31.8162C113.506 31.167 113.181 30.369 113.181 29.4222C113.181 28.4754 113.506 27.6909 114.155 27.0688C114.832 26.4196 115.67 26.0949 116.671 26.0949C117.672 26.0949 118.497 26.4196 119.146 27.0688C119.822 27.6909 120.161 28.4754 120.161 29.4222C120.161 30.369 119.822 31.167 119.146 31.8162C118.497 32.4384 117.672 32.7495 116.671 32.7495ZM119.471 35.4275V57.9067H113.79V35.4275H119.471ZM123.623 46.6671C123.623 44.3407 124.096 42.3119 125.043 40.5807C125.99 38.8224 127.301 37.4698 128.979 36.523C130.656 35.5492 132.576 35.0623 134.74 35.0623C137.527 35.0623 139.826 35.7656 141.638 37.1723C143.478 38.5519 144.709 40.4995 145.331 43.0152H139.204C138.879 42.0414 138.325 41.284 137.54 40.743C136.783 40.1749 135.836 39.8909 134.7 39.8909C133.077 39.8909 131.792 40.486 130.845 41.6762C129.898 42.8394 129.425 44.503 129.425 46.6671C129.425 48.8041 129.898 50.4678 130.845 51.658C131.792 52.8212 133.077 53.4028 134.7 53.4028C136.999 53.4028 138.501 52.3748 139.204 50.319H145.331C144.709 52.7536 143.478 54.6877 141.638 56.1214C139.799 57.5551 137.5 58.2719 134.74 58.2719C132.576 58.2719 130.656 57.7985 128.979 56.8518C127.301 55.8779 125.99 54.5254 125.043 52.7941C124.096 51.0358 123.623 48.9935 123.623 46.6671ZM170.389 46.1802C170.389 46.9917 170.335 47.7221 170.227 48.3713H153.794C153.929 49.9944 154.497 51.2658 155.498 52.1855C156.499 53.1052 157.729 53.5651 159.19 53.5651C161.3 53.5651 162.801 52.6589 163.694 50.8465H169.821C169.172 53.0105 167.928 54.7959 166.088 56.2025C164.249 57.5821 161.99 58.2719 159.312 58.2719C157.148 58.2719 155.2 57.7985 153.469 56.8518C151.765 55.8779 150.426 54.5119 149.452 52.7536C148.505 50.9952 148.032 48.9664 148.032 46.6671C148.032 44.3407 148.505 42.2984 149.452 40.5401C150.399 38.7818 151.724 37.4292 153.428 36.4825C155.133 35.5357 157.094 35.0623 159.312 35.0623C161.449 35.0623 163.356 35.5222 165.033 36.4419C166.737 37.3616 168.049 38.6736 168.969 40.3778C169.916 42.0549 170.389 43.9891 170.389 46.1802ZM164.506 44.5571C164.479 43.0964 163.951 41.9332 162.923 41.0676C161.895 40.1749 160.637 39.7286 159.15 39.7286C157.743 39.7286 156.553 40.1614 155.579 41.027C154.632 41.8656 154.051 43.0423 153.834 44.5571H164.506Z" fill="white"/>
<path d="M190.604 43.3804C192.2 43.678 193.512 44.476 194.54 45.7744C195.568 47.0729 196.082 48.5607 196.082 50.2378C196.082 51.7527 195.703 53.0917 194.946 54.2549C194.215 55.391 193.147 56.2837 191.74 56.9329C190.333 57.5821 188.67 57.9067 186.749 57.9067H174.536V29.5845H186.222C188.142 29.5845 189.792 29.8956 191.172 30.5178C192.579 31.1399 193.634 32.0056 194.337 33.1146C195.067 34.2237 195.432 35.4816 195.432 36.8882C195.432 38.5383 194.986 39.9179 194.093 41.027C193.228 42.1361 192.065 42.9206 190.604 43.3804ZM180.216 41.2705H185.41C186.763 41.2705 187.804 40.9729 188.534 40.3778C189.265 39.7556 189.63 38.8765 189.63 37.7403C189.63 36.6042 189.265 35.725 188.534 35.1029C187.804 34.4807 186.763 34.1696 185.41 34.1696H180.216V41.2705ZM185.938 53.281C187.317 53.281 188.386 52.9564 189.143 52.3072C189.928 51.658 190.32 50.7383 190.32 49.548C190.32 48.3307 189.914 47.384 189.103 46.7077C188.291 46.0044 187.195 45.6527 185.816 45.6527H180.216V53.281H185.938ZM199.148 46.586C199.148 44.3137 199.595 42.2984 200.487 40.5401C201.407 38.7818 202.638 37.4292 204.18 36.4825C205.749 35.5357 207.494 35.0623 209.414 35.0623C211.091 35.0623 212.552 35.4004 213.796 36.0767C215.068 36.753 216.082 37.6051 216.84 38.633V35.4275H222.561V57.9067H216.84V54.6201C216.109 55.675 215.095 56.5542 213.796 57.2575C212.525 57.9338 211.051 58.2719 209.374 58.2719C207.48 58.2719 205.749 57.785 204.18 56.8112C202.638 55.8373 201.407 54.4713 200.487 52.713C199.595 50.9276 199.148 48.8853 199.148 46.586ZM216.84 46.6671C216.84 45.2875 216.569 44.1108 216.028 43.137C215.487 42.1361 214.757 41.3787 213.837 40.8647C212.917 40.3237 211.93 40.0532 210.875 40.0532C209.82 40.0532 208.846 40.3102 207.953 40.8241C207.061 41.3381 206.33 42.0955 205.762 43.0964C205.221 44.0702 204.951 45.2334 204.951 46.586C204.951 47.9385 205.221 49.1287 205.762 50.1567C206.33 51.1576 207.061 51.9285 207.953 52.4695C208.873 53.0105 209.847 53.281 210.875 53.281C211.93 53.281 212.917 53.0241 213.837 52.5101C214.757 51.9691 215.487 51.2117 216.028 50.2378C216.569 49.2369 216.84 48.0467 216.84 46.6671ZM240.566 35.1029C243.244 35.1029 245.408 35.955 247.058 37.6592C248.708 39.3363 249.533 41.6898 249.533 44.7194V57.9067H243.853V45.4904C243.853 43.705 243.406 42.339 242.514 41.3922C241.621 40.4184 240.404 39.9314 238.862 39.9314C237.293 39.9314 236.048 40.4184 235.129 41.3922C234.236 42.339 233.79 43.705 233.79 45.4904V57.9067H228.109V35.4275H233.79V38.2272C234.547 37.2534 235.507 36.496 236.671 35.955C237.861 35.3869 239.159 35.1029 240.566 35.1029ZM268.244 57.9067L260.616 48.3307V57.9067H254.935V27.8803H260.616V44.9629L268.163 35.4275H275.548L265.647 46.7077L275.629 57.9067H268.244Z" fill="#5CE1E6"/>
<path d="M36.0678 0C28.9343 -8.50666e-08 21.9609 2.11534 16.0296 6.07852C10.0983 10.0417 5.47539 15.6747 2.7455 22.2652C0.0156126 28.8558 -0.698651 36.1078 0.693031 43.1043C2.08471 50.1007 5.51984 56.5274 10.564 61.5716C15.6082 66.6157 22.0348 70.0509 29.0313 71.4426C36.0278 72.8342 43.2798 72.12 49.8703 69.3901C56.4609 66.6602 62.0939 62.0373 66.0571 56.106C70.0202 50.1747 72.1356 43.2013 72.1356 36.0678L54.1017 36.0678C54.1017 39.6346 53.044 43.1212 51.0624 46.0869C49.0808 49.0526 46.2643 51.364 42.9691 52.7289C39.6738 54.0939 36.0478 54.451 32.5495 53.7552C29.0513 53.0593 25.838 51.3418 23.3159 48.8197C20.7938 46.2976 19.0763 43.0843 18.3804 39.586C17.6846 36.0878 18.0417 32.4618 19.4066 29.1665C20.7716 25.8713 23.083 23.0547 26.0487 21.0732C29.0144 19.0916 32.501 18.0339 36.0678 18.0339V0Z" fill="white"/>
<path d="M36.0678 0C31.3313 -5.64821e-08 26.6412 0.932921 22.2652 2.7455C17.8893 4.55807 13.9132 7.21481 10.564 10.564C7.21481 13.9132 4.55807 17.8893 2.7455 22.2653C0.93292 26.6412 -7.1519e-07 31.3313 0 36.0678H18.0339C18.0339 33.6996 18.5004 31.3545 19.4066 29.1665C20.3129 26.9785 21.6413 24.9905 23.3159 23.3159C24.9905 21.6413 26.9785 20.3129 29.1665 19.4066C31.3545 18.5004 33.6996 18.0339 36.0678 18.0339V0Z" fill="#5CE1E6"/>
<circle cx="36.0678" cy="36.0678" r="11.2712" fill="#5CE1E6"/>
<path d="M47.339 36.0678C47.339 34.5877 47.0474 33.122 46.481 31.7545C45.9146 30.387 45.0843 29.1445 44.0377 28.0979C42.9911 27.0513 41.7486 26.221 40.3811 25.6546C39.0136 25.0882 37.5479 24.7966 36.0678 24.7966C34.5876 24.7966 33.122 25.0882 31.7545 25.6546C30.387 26.221 29.1445 27.0513 28.0979 28.0979C27.0512 29.1445 26.221 30.387 25.6546 31.7545C25.0881 33.122 24.7966 34.5877 24.7966 36.0678L36.0678 36.0678H47.339Z" fill="white"/>
</svg>
